<?xml version="1.0" encoding="utf-8"?>
<!-- Generator: Adobe Illustrator 24.2.1, SVG Export Plug-In . SVG Version: 6.00 Build 0)  -->
<svg version="1.0" id="Layer_1" xmlns="http://www.w3.org/2000/svg" xmlns:xlink="http://www.w3.org/1999/xlink" x="0px" y="0px"
	 viewBox="0 0 2500 2500" style="enable-background:new 0 0 2500 2500;" xml:space="preserve">
<style type="text/css">
	.st0{fill:#EE2F26;}
	.st1{fill:#FFFFFF;}
</style>
<rect class="st0" width="2500" height="2500"/>
<g>
	<g>
		<path class="st1" d="M510.9,960.64c-159.81,0-289.36,129.55-289.36,289.36s129.55,289.36,289.36,289.36
			c159.81,0,289.36-129.55,289.36-289.36S670.7,960.64,510.9,960.64z M547.39,1059.39h49.23v30.37v4.36v5.82v4.36v28.87h-5.82
			v-28.87v-4.36v-5.82v-4.36v-24.55h-37.6v24.55h-5.82V1059.39z M512.66,1094.13h30.37h4.36h5.82h4.37h28.87v5.82h-28.87h-4.37
			h-5.82h-4.36h-24.55v37.6h24.55v5.82h-30.37V1094.13z M590.81,1172.28v-24.55h5.82v30.37h-49.23v-30.37v-4.36v-5.82v-4.36v-28.87
			h5.82v28.87v4.36v5.82v4.36v24.55H590.81z M429.03,1231.95c-10.28,2.31-10.67,18.36-10.67,40.01c0,28.9,0.07,168.64,0.07,168.64
			h-28c0,0,0-156.33,0-192.58c0-13.9,4.83-27.41,16.91-35.12c13.21-8.44,31.25-10.92,45.12-3.34c0.01,0.01,0.03,0.01,0.04,0.02
			c2.48,1.34,4.82,2.93,7.05,4.66l87.83,67.78v36.64l-0.5-0.4l-108.96-84.06C435.41,1232.26,432.15,1231.25,429.03,1231.95z
			 M624.63,1397.62c0,13.9-4.83,27.41-16.91,35.12c-13.21,8.44-31.25,10.92-45.12,3.34c-0.01-0.01-0.03-0.01-0.04-0.02
			c-2.48-1.34-4.82-2.93-7.06-4.66l-87.83-67.78v-36.64l0.5,0.4l108.96,84.06c2.53,1.95,5.78,2.96,8.9,2.26
			c10.28-2.31,10.67-18.36,10.67-40.01c0-28.9-0.07-168.64-0.07-168.64h28C624.63,1205.04,624.63,1361.37,624.63,1397.62z
			 M631.37,1143.36h-30.37h-4.37h-5.82h-4.36h-28.87v-5.82h28.87h4.36h5.82h4.37h24.55v-37.6h-24.55v-5.82h30.37V1143.36z"/>
	</g>
	<g>
		<path class="st1" d="M1072.87,1095.96h-47.58v162.21l-96.21-162.21h-26.05c-13.55,0-24.31,11.81-24.31,25.36v210.83h47.59v-162.21
			l96.21,162.21h50.36V1095.96z"/>
		<path class="st1" d="M1144.42,1170.63c0-14.94-7.29-22.23-22.23-22.23h-23.97v183.74h46.2V1170.63z"/>
		<path class="st1" d="M1144.42,1118.53c0.35-14.94-6.95-22.58-22.23-22.58h-23.97v36.12h46.2V1118.53z"/>
		<path class="st1" d="M1217.36,1236.63c0-26.74,12.85-40.29,38.55-40.29h15.63v-47.93h-6.6c-61.48,0-93.09,29.52-94.48,88.92v94.82
			h46.89V1236.63z"/>
		<path class="st1" d="M1366.37,1145.63c-42.37,0-66.34,16.67-71.9,50.71h46.2c2.43-8.68,11.46-12.85,27.79-12.85
			c19.1,0,28.83,5.21,29.87,15.63c0,10.07-10.07,15.98-29.87,18.41c-46.54,4.52-78.5,16.32-79.54,60.44
			c0,40.64,30.57,61.13,74.68,57.66c49.67-3.47,80.23-26.05,80.23-76.76v-62.52C1442.78,1162.3,1417.08,1145.63,1366.37,1145.63z
			 M1399.02,1256.77c0,26.05-15.63,41.33-41.33,41.33c-14.59,0-22.23-6.95-23.27-21.54c0-13.55,9.38-22.23,27.79-25.7
			c13.55-2.78,26.05-6.6,36.82-11.12V1256.77z"/>
		<path class="st1" d="M1541.42,1217.52c-46.54,4.52-78.5,16.32-79.54,60.44c0,40.64,30.57,61.13,74.68,57.66
			c49.67-3.47,80.23-26.05,80.23-76.76v-62.52c-1.04-34.04-26.74-50.71-77.46-50.71c-42.37,0-66.34,16.67-71.9,50.71h46.2
			c2.43-8.68,11.46-12.85,27.79-12.85c19.1,0,28.83,5.21,29.87,15.63C1571.29,1209.19,1561.22,1215.09,1541.42,1217.52z
			 M1571.99,1239.75v17.02c0,26.05-15.63,41.33-41.33,41.33c-14.59,0-22.23-6.95-23.27-21.54c0-13.55,9.38-22.23,27.79-25.7
			C1548.72,1248.09,1561.22,1244.27,1571.99,1239.75z"/>
		<path class="st1" d="M1858.88,1215.44v94.48c0,14.59,7.64,21.88,22.92,22.92h23.97v-108.02c0.35-52.45-25.7-78.5-78.15-78.5
			c-23.62,0-41.68,4.86-54.88,14.94c-13.2-10.42-31.26-15.63-54.88-15.63c-52.45,0-78.85,26.05-78.85,78.5v108.02h46.89v-117.4
			c0.35-19.1,10.77-28.48,31.26-28.48c20.49,0,30.91,9.38,31.95,28.48v117.4h46.54v-116.7c0.35-19.1,10.77-28.48,31.26-28.48
			C1847.42,1186.96,1857.84,1196.34,1858.88,1215.44z"/>
		<path class="st1" d="M2014.49,1145.63c-55.57,0-83.36,31.61-83.36,95.52c0,63.21,27.79,95.17,83.36,95.17s83.71-31.96,83.71-95.17
			C2098.19,1177.23,2070.06,1145.63,2014.49,1145.63z M2014.14,1294.98c-23.62,0-35.78-18.06-36.12-53.84
			c0-36.47,12.16-54.88,36.47-54.88c23.62,0,35.43,17.71,35.43,53.49C2049.57,1276.22,2037.76,1294.98,2014.14,1294.98z"/>
		<path class="st1" d="M2246.16,1148.41c-11.81,0-19.1,5.56-21.88,16.32l-31.95,111.15l-36.47-127.47h-52.45l62.52,179.57
			c7.29,24.31-1.74,36.82-27.09,36.82h-12.85v37.86c1.39,1.04,7.64,1.39,19.45,1.39c38.21,0,49.32-10.42,60.44-40.64l72.59-215
			H2246.16z"/>
	</g>
</g>
</svg>
