<?xml version="1.0" encoding="utf-8"?>
<!-- Generator: Adobe Illustrator 24.2.1, SVG Export Plug-In . SVG Version: 6.00 Build 0)  -->
<svg version="1.0" id="Layer_1" xmlns="http://www.w3.org/2000/svg" xmlns:xlink="http://www.w3.org/1999/xlink" x="0px" y="0px"
	 viewBox="0 0 2500 2500" style="enable-background:new 0 0 2500 2500;" xml:space="preserve">
<style type="text/css">
	.st0{fill:#EE2F26;}
</style>
<g>
	<g>
		<path class="st0" d="M510.9,960.64c-159.81,0-289.36,129.55-289.36,289.36s129.55,289.36,289.36,289.36
			c159.81,0,289.36-129.55,289.36-289.36S670.7,960.64,510.9,960.64z M547.39,1059.39h49.23v30.37v4.36v5.82v4.36v28.87h-5.82
			v-28.87v-4.36v-5.82v-4.36v-24.55h-37.6v24.55h-5.82V1059.39z M512.66,1094.13h30.37h4.36h5.82h4.37h28.87v5.82h-28.87h-4.37
			h-5.82h-4.36h-24.55v37.6h24.55v5.82h-30.37V1094.13z M590.81,1172.28v-24.55h5.82v30.37h-49.23v-30.37v-4.36v-5.82v-4.36v-28.87
			h5.82v28.87v4.36v5.82v4.36v24.55H590.81z M429.03,1231.95c-10.28,2.31-10.67,18.36-10.67,40.01c0,28.9,0.07,168.64,0.07,168.64
			h-28c0,0,0-156.33,0-192.58c0-13.9,4.83-27.41,16.91-35.12c13.21-8.44,31.25-10.92,45.12-3.34c0.01,0.01,0.03,0.01,0.04,0.02
			c2.48,1.34,4.82,2.93,7.05,4.66l87.83,67.78v36.64l-0.5-0.4l-108.96-84.06C435.41,1232.26,432.15,1231.25,429.03,1231.95z
			 M624.63,1397.62c0,13.9-4.83,27.41-16.91,35.12c-13.21,8.44-31.25,10.92-45.12,3.34c-0.01-0.01-0.03-0.01-0.04-0.02
			c-2.48-1.34-4.82-2.93-7.06-4.66l-87.83-67.78v-36.64l0.5,0.4l108.96,84.06c2.53,1.95,5.78,2.96,8.9,2.26
			c10.28-2.31,10.67-18.36,10.67-40.01c0-28.9-0.07-168.64-0.07-168.64h28C624.63,1205.04,624.63,1361.37,624.63,1397.62z
			 M631.37,1143.36h-30.37h-4.37h-5.82h-4.36h-28.87v-5.82h28.87h4.36h5.82h4.37h24.55v-37.6h-24.55v-5.82h30.37V1143.36z"/>
	</g>
	<g>
		<path class="st0" d="M1072.87,1091.75h-47.58v162.21l-96.21-162.21h-26.05c-13.55,0-24.31,11.81-24.31,25.36v210.83h47.59v-162.21
			l96.21,162.21h50.36V1091.75z"/>
		<path class="st0" d="M1144.42,1166.43c0-14.94-7.29-22.23-22.23-22.23h-23.97v183.74h46.2V1166.43z"/>
		<path class="st0" d="M1144.42,1114.33c0.35-14.94-6.95-22.58-22.23-22.58h-23.97v36.12h46.2V1114.33z"/>
		<path class="st0" d="M1217.36,1232.42c0-26.74,12.85-40.29,38.55-40.29h15.63v-47.93h-6.6c-61.48,0-93.09,29.52-94.48,88.92v94.82
			h46.89V1232.42z"/>
		<path class="st0" d="M1366.37,1141.42c-42.37,0-66.34,16.67-71.9,50.71h46.2c2.43-8.68,11.46-12.85,27.79-12.85
			c19.1,0,28.83,5.21,29.87,15.63c0,10.07-10.07,15.98-29.87,18.41c-46.54,4.52-78.5,16.33-79.54,60.44
			c0,40.64,30.57,61.13,74.68,57.66c49.67-3.47,80.23-26.05,80.23-76.76v-62.52C1442.78,1158.09,1417.08,1141.42,1366.37,1141.42z
			 M1399.02,1252.57c0,26.05-15.63,41.33-41.33,41.33c-14.59,0-22.23-6.95-23.27-21.54c0-13.55,9.38-22.23,27.79-25.7
			c13.55-2.78,26.05-6.6,36.82-11.12V1252.57z"/>
		<path class="st0" d="M1541.42,1213.32c-46.54,4.52-78.5,16.33-79.54,60.44c0,40.64,30.57,61.13,74.68,57.66
			c49.67-3.47,80.23-26.05,80.23-76.76v-62.52c-1.04-34.04-26.74-50.71-77.46-50.71c-42.37,0-66.34,16.67-71.9,50.71h46.2
			c2.43-8.68,11.46-12.85,27.79-12.85c19.1,0,28.83,5.21,29.87,15.63C1571.29,1204.98,1561.22,1210.89,1541.42,1213.32z
			 M1571.99,1235.55v17.02c0,26.05-15.63,41.33-41.33,41.33c-14.59,0-22.23-6.95-23.27-21.54c0-13.55,9.38-22.23,27.79-25.7
			C1548.72,1243.88,1561.22,1240.06,1571.99,1235.55z"/>
		<path class="st0" d="M1858.88,1211.24v94.47c0,14.59,7.64,21.88,22.92,22.92h23.97v-108.02c0.35-52.45-25.7-78.5-78.15-78.5
			c-23.62,0-41.68,4.86-54.88,14.94c-13.2-10.42-31.26-15.63-54.88-15.63c-52.45,0-78.85,26.05-78.85,78.5v108.02h46.89v-117.4
			c0.35-19.1,10.77-28.48,31.26-28.48c20.49,0,30.91,9.38,31.95,28.48v117.4h46.54v-116.7c0.35-19.1,10.77-28.48,31.26-28.48
			C1847.42,1182.75,1857.84,1192.13,1858.88,1211.24z"/>
		<path class="st0" d="M2014.49,1141.42c-55.57,0-83.36,31.61-83.36,95.52c0,63.21,27.79,95.17,83.36,95.17s83.71-31.95,83.71-95.17
			C2098.19,1173.03,2070.06,1141.42,2014.49,1141.42z M2014.14,1290.78c-23.62,0-35.78-18.06-36.12-53.84
			c0-36.47,12.16-54.88,36.47-54.88c23.62,0,35.43,17.71,35.43,53.49C2049.57,1272.02,2037.76,1290.78,2014.14,1290.78z"/>
		<path class="st0" d="M2246.16,1144.2c-11.81,0-19.1,5.56-21.88,16.32l-31.95,111.15l-36.47-127.47h-52.45l62.52,179.57
			c7.29,24.31-1.74,36.82-27.09,36.82h-12.85v37.86c1.39,1.04,7.64,1.39,19.45,1.39c38.21,0,49.32-10.42,60.44-40.64l72.59-215
			H2246.16z"/>
		<path class="st0" d="M932.22,1358.23c-2.48-2.48-5.44-4.41-8.88-5.79c-3.44-1.37-7.19-2.06-11.26-2.06h-33.37v57.63h33.37
			c4.07,0,7.82-0.75,11.26-2.26c3.43-1.51,6.39-3.57,8.88-6.18c2.48-2.61,4.43-5.72,5.83-9.31c1.4-3.59,2.1-7.48,2.1-11.65
			c0-4.17-0.7-7.99-2.1-11.45C936.64,1363.69,934.7,1360.72,932.22,1358.23z M928.73,1386.61c-0.9,2.33-2.15,4.32-3.77,5.98
			c-1.61,1.66-3.51,2.97-5.71,3.92c-2.19,0.95-4.58,1.43-7.17,1.43H888.7v-37.49h23.38c2.59,0,4.98,0.46,7.17,1.39
			c2.19,0.93,4.09,2.21,5.71,3.84c1.61,1.64,2.87,3.61,3.77,5.91c0.9,2.3,1.35,4.8,1.35,7.49
			C930.08,1381.77,929.63,1384.28,928.73,1386.61z"/>
		<path class="st0" d="M1009.1,1358.23c-2.48-2.48-5.46-4.41-8.92-5.79c-3.46-1.37-7.28-2.06-11.45-2.06H974.7
			c-4.02,0-7.73,0.67-11.14,2.02c-3.41,1.35-6.37,3.25-8.88,5.71c-2.51,2.46-4.47,5.43-5.87,8.92c-1.4,3.49-2.1,7.34-2.1,11.57
			c0,4.17,0.7,8.06,2.1,11.65c1.4,3.59,3.36,6.7,5.87,9.31c2.51,2.62,5.47,4.68,8.88,6.18c3.41,1.51,7.12,2.26,11.14,2.26h14.03
			c4.12,0,7.9-0.75,11.33-2.26c3.43-1.51,6.41-3.57,8.92-6.18c2.51-2.61,4.46-5.72,5.87-9.31c1.4-3.59,2.1-7.48,2.1-11.65
			c0-4.17-0.69-7.99-2.06-11.45C1013.52,1363.69,1011.59,1360.72,1009.1,1358.23z M1005.54,1386.61c-0.9,2.33-2.15,4.32-3.77,5.98
			c-1.61,1.66-3.53,2.97-5.75,3.92c-2.22,0.95-4.65,1.43-7.29,1.43H974.7c-2.59,0-4.98-0.47-7.17-1.43
			c-2.19-0.95-4.08-2.26-5.67-3.92c-1.59-1.66-2.83-3.66-3.73-5.98c-0.9-2.32-1.35-4.83-1.35-7.53c0-2.75,0.45-5.26,1.35-7.53
			c0.9-2.27,2.14-4.23,3.73-5.87c1.58-1.64,3.47-2.92,5.67-3.84c2.19-0.92,4.58-1.39,7.17-1.39h14.03c2.64,0,5.07,0.46,7.29,1.39
			c2.22,0.93,4.13,2.21,5.75,3.84c1.61,1.64,2.87,3.61,3.77,5.91c0.9,2.3,1.35,4.8,1.35,7.49
			C1006.88,1381.77,1006.43,1384.28,1005.54,1386.61z"/>
		<path class="st0" d="M1085.83,1358.23c-2.48-2.48-5.46-4.41-8.92-5.79c-3.46-1.37-7.28-2.06-11.45-2.06h-14.03
			c-4.02,0-7.73,0.67-11.14,2.02c-3.41,1.35-6.37,3.25-8.88,5.71c-2.51,2.46-4.47,5.43-5.87,8.92c-1.4,3.49-2.1,7.34-2.1,11.57
			c0,4.17,0.7,8.06,2.1,11.65c1.4,3.59,3.36,6.7,5.87,9.31c2.51,2.62,5.47,4.68,8.88,6.18c3.41,1.51,7.12,2.26,11.14,2.26h14.03
			c4.12,0,7.9-0.75,11.33-2.26c3.43-1.51,6.41-3.57,8.92-6.18c2.51-2.61,4.46-5.72,5.87-9.31c1.4-3.59,2.1-7.48,2.1-11.65
			c0-4.17-0.69-7.99-2.06-11.45C1090.24,1363.69,1088.31,1360.72,1085.83,1358.23z M1082.26,1386.61c-0.9,2.33-2.15,4.32-3.77,5.98
			c-1.61,1.66-3.53,2.97-5.75,3.92c-2.22,0.95-4.65,1.43-7.29,1.43h-14.03c-2.59,0-4.98-0.47-7.17-1.43
			c-2.19-0.95-4.08-2.26-5.67-3.92c-1.59-1.66-2.83-3.66-3.73-5.98c-0.9-2.32-1.35-4.83-1.35-7.53c0-2.75,0.45-5.26,1.35-7.53
			c0.9-2.27,2.14-4.23,3.73-5.87c1.58-1.64,3.47-2.92,5.67-3.84c2.19-0.92,4.58-1.39,7.17-1.39h14.03c2.64,0,5.07,0.46,7.29,1.39
			c2.22,0.93,4.13,2.21,5.75,3.84c1.61,1.64,2.87,3.61,3.77,5.91c0.9,2.3,1.35,4.8,1.35,7.49
			C1083.61,1381.77,1083.16,1384.28,1082.26,1386.61z"/>
		<path class="st0" d="M1161.01,1383.48c2.09-3.25,3.13-7.28,3.13-12.09c0-3.22-0.48-6.13-1.43-8.72c-0.95-2.59-2.33-4.8-4.12-6.62
			c-1.8-1.82-3.99-3.22-6.58-4.2c-2.59-0.98-5.52-1.47-8.8-1.47h-41.38v57.63h9.99v-47.56h31.39c3.49,0,6.2,0.91,8.12,2.73
			c1.93,1.82,2.89,4.61,2.89,8.36s-0.93,6.62-2.77,8.6c-1.85,1.98-4.6,2.97-8.24,2.97h-24.02v8.88h21.56l14.59,16.01h14.27
			l-17.36-17.52C1156.01,1389.07,1158.92,1386.73,1161.01,1383.48z"/>
		<path class="st0" d="M1218.04,1374.48h-26.4c-2.22,0-3.98-0.61-5.27-1.82c-1.3-1.21-1.94-2.93-1.94-5.15
			c0-2.22,0.63-3.95,1.9-5.19c1.27-1.24,3.06-1.86,5.39-1.86h41.38v-10.07h-41.38c-2.85,0-5.39,0.41-7.61,1.23
			c-2.22,0.82-4.08,1.94-5.59,3.37c-1.51,1.43-2.64,3.13-3.41,5.11c-0.77,1.98-1.15,4.14-1.15,6.46c0,2.38,0.41,4.57,1.23,6.58
			c0.82,2.01,1.98,3.74,3.49,5.19c1.51,1.45,3.36,2.59,5.55,3.41c2.19,0.82,4.64,1.23,7.33,1.23h26.47c2.7,0,4.77,0.62,6.22,1.86
			c1.45,1.24,2.18,3.1,2.18,5.59c0,2.27-0.73,4.09-2.18,5.47c-1.45,1.38-3.53,2.06-6.22,2.06h-43.2v10.07h43.2
			c3.01,0,5.64-0.42,7.89-1.27c2.25-0.84,4.11-2.02,5.59-3.53c1.48-1.51,2.59-3.29,3.33-5.35c0.74-2.06,1.11-4.31,1.11-6.74
			c0-5.6-1.52-9.78-4.56-12.52C1228.36,1375.86,1223.91,1374.48,1218.04,1374.48z"/>
		<polygon class="st0" points="1241.19,1360.45 1263.06,1360.45 1263.06,1408.01 1273.13,1408.01 1273.13,1360.45 1295.01,1360.45 
			1295.01,1350.39 1241.19,1350.39 		"/>
		<rect x="1319.02" y="1374.48" class="st0" width="31.94" height="8.48"/>
		<polygon class="st0" points="1311.65,1360.45 1353.11,1360.45 1353.11,1350.39 1301.67,1350.39 1301.67,1408.01 1353.19,1408.01 
			1353.19,1397.94 1311.65,1397.94 		"/>
		<path class="st0" d="M1417.87,1355.97c-1.8-1.77-4-3.14-6.62-4.12c-2.62-0.98-5.59-1.47-8.92-1.47h-40.5v57.63h9.99v-47.56h30.52
			c3.54,0,6.3,0.98,8.28,2.93c1.98,1.96,2.97,4.6,2.97,7.93c0,3.28-0.99,5.92-2.97,7.93c-1.98,2.01-4.74,3.01-8.28,3.01h-23.15v9.75
			h23.15c3.33,0,6.3-0.52,8.92-1.55c2.62-1.03,4.82-2.47,6.62-4.32c1.8-1.85,3.17-4.06,4.12-6.62c0.95-2.56,1.43-5.4,1.43-8.52
			c0-3.17-0.48-6.02-1.43-8.56C1421.04,1359.9,1419.66,1357.74,1417.87,1355.97z"/>
		<rect x="1453.85" y="1350.39" class="st0" width="10.07" height="57.86"/>
		<polygon class="st0" points="1500.22,1374.24 1471.21,1374.24 1471.21,1383.2 1500.22,1383.2 1500.22,1408.25 1510.29,1408.25 
			1510.29,1350.39 1500.22,1350.39 		"/>
		<rect x="1537.63" y="1374.48" class="st0" width="31.94" height="8.48"/>
		<polygon class="st0" points="1530.26,1360.45 1571.72,1360.45 1571.72,1350.39 1520.28,1350.39 1520.28,1408.01 1571.8,1408.01 
			1571.8,1397.94 1530.26,1397.94 		"/>
		<path class="st0" d="M1617.41,1350.46c-0.77-0.58-1.7-0.87-2.81-0.87c-1.11,0-2.06,0.29-2.85,0.87s-1.48,1.37-2.06,2.38
			l-33.13,55.17h11.49l26.16-44.23l12.84,21.56h-17.68l-4.76,8.17h27.27l8.64,14.51h12.13l-33.21-55.17
			C1618.85,1351.84,1618.18,1351.05,1617.41,1350.46z"/>
		<polygon class="st0" points="1668.9,1350.39 1658.83,1350.39 1658.83,1408.01 1707.66,1408.01 1707.66,1397.94 1668.9,1397.94 		
			"/>
		<polygon class="st0" points="1702.58,1360.45 1724.46,1360.45 1724.46,1408.01 1734.53,1408.01 1734.53,1360.45 1756.4,1360.45 
			1756.4,1350.39 1702.58,1350.39 		"/>
		<rect x="1763.06" y="1350.39" class="st0" width="10.07" height="57.86"/>
		<polygon class="st0" points="1809.43,1374.24 1780.42,1374.24 1780.42,1383.2 1809.43,1383.2 1809.43,1408.25 1819.5,1408.25 
			1819.5,1350.39 1809.43,1350.39 		"/>
		<path class="st0" d="M1844.66,1352.41c-3.41,1.35-6.37,3.25-8.88,5.71c-2.51,2.46-4.47,5.43-5.87,8.92
			c-1.4,3.49-2.1,7.34-2.1,11.57c0,4.17,0.7,8.06,2.1,11.65c1.4,3.59,3.36,6.7,5.87,9.31c2.51,2.62,5.47,4.68,8.88,6.18
			c3.41,1.51,7.12,2.26,11.14,2.26h31.23v-10.07h-31.23c-2.59,0-4.98-0.47-7.17-1.43c-2.19-0.95-4.08-2.26-5.67-3.92
			c-1.59-1.66-2.83-3.66-3.73-5.98c-0.9-2.32-1.35-4.83-1.35-7.53c0-2.75,0.45-5.26,1.35-7.53c0.9-2.27,2.14-4.23,3.73-5.87
			c1.58-1.64,3.47-2.92,5.67-3.84c2.19-0.92,4.58-1.39,7.17-1.39h31.23v-10.07h-31.23
			C1851.78,1350.39,1848.07,1351.06,1844.66,1352.41z"/>
		<path class="st0" d="M1932.17,1350.46c-0.77-0.58-1.7-0.87-2.81-0.87c-1.11,0-2.06,0.29-2.85,0.87c-0.79,0.58-1.48,1.37-2.06,2.38
			l-33.13,55.17h11.49l26.16-44.23l12.84,21.56h-17.68l-4.76,8.17h27.27l8.64,14.51h12.13l-33.21-55.17
			C1933.61,1351.84,1932.94,1351.05,1932.17,1350.46z"/>
		<path class="st0" d="M2032.76,1383.48c2.09-3.25,3.13-7.28,3.13-12.09c0-3.22-0.48-6.13-1.43-8.72c-0.95-2.59-2.33-4.8-4.12-6.62
			c-1.8-1.82-3.99-3.22-6.58-4.2c-2.59-0.98-5.52-1.47-8.8-1.47h-41.38v57.63h9.99v-47.56h31.39c3.49,0,6.2,0.91,8.12,2.73
			c1.93,1.82,2.89,4.61,2.89,8.36s-0.93,6.62-2.77,8.6c-1.85,1.98-4.6,2.97-8.24,2.97h-24.02v8.88h21.56l14.59,16.01h14.27
			l-17.36-17.52C2027.75,1389.07,2030.67,1386.73,2032.76,1383.48z"/>
		<polygon class="st0" points="2056.58,1360.45 2098.03,1360.45 2098.03,1350.39 2046.59,1350.39 2046.59,1408.01 2098.11,1408.01 
			2098.11,1397.94 2056.58,1397.94 		"/>
		<rect x="2063.95" y="1374.48" class="st0" width="31.94" height="8.48"/>
	</g>
</g>
</svg>
