<?xml version="1.0" encoding="utf-8"?>
<!-- Generator: Adobe Illustrator 24.2.1, SVG Export Plug-In . SVG Version: 6.00 Build 0)  -->
<svg version="1.0" id="Layer_1" xmlns="http://www.w3.org/2000/svg" xmlns:xlink="http://www.w3.org/1999/xlink" x="0px" y="0px"
	 viewBox="0 0 2500 2500" style="enable-background:new 0 0 2500 2500;" xml:space="preserve">
<style type="text/css">
	.st0{fill:#EE2F26;}
</style>
<path class="st0" d="M1250,636.06c-339.07,0-613.94,274.87-613.94,613.94s274.87,613.94,613.94,613.94s613.94-274.87,613.94-613.94
	S1589.07,636.06,1250,636.06z M1327.44,845.58h104.46v64.44v9.26v12.35v9.26v61.25h-12.34v-61.25v-9.26v-12.35v-9.26v-52.09h-79.77
	v52.09h-12.34V845.58z M1253.74,919.28h64.44h9.26h12.34h9.26h61.25v12.35h-61.25h-9.26h-12.34h-9.26h-52.1v79.77h52.1v12.35h-64.44
	V919.28z M1419.56,1085.09V1033h12.34v64.44h-104.46V1033v-9.26v-12.35v-9.26v-61.25h12.34v61.25v9.26v12.35v9.26v52.09H1419.56z
	 M1076.31,1211.71c-21.82,4.9-22.65,38.97-22.65,84.9c0,61.31,0.14,357.82,0.14,357.82H994.4c0,0,0-331.69,0-408.59
	c0-29.5,10.25-58.15,35.88-74.51c28.02-17.91,66.3-23.18,95.73-7.09c0.03,0.02,0.06,0.03,0.09,0.05c5.27,2.84,10.23,6.22,14.97,9.88
	l186.36,143.81v77.74l-1.06-0.84l-231.18-178.36C1089.83,1212.36,1082.92,1210.22,1076.31,1211.71z M1491.32,1563.2
	c0,29.5-10.25,58.15-35.89,74.51c-28.02,17.91-66.3,23.18-95.72,7.09c-0.03-0.02-0.06-0.03-0.09-0.05
	c-5.27-2.83-10.23-6.22-14.97-9.88l-186.36-143.81v-77.74l1.05,0.84l231.18,178.36c5.36,4.14,12.27,6.27,18.88,4.79
	c21.82-4.9,22.64-38.97,22.64-84.9c0-61.31-0.14-357.82-0.14-357.82h59.41C1491.32,1154.61,1491.32,1486.3,1491.32,1563.2z
	 M1505.6,1023.74h-64.44h-9.26h-12.34h-9.26h-61.25v-12.35h61.25h9.26h12.34h9.26h52.09v-79.77h-52.09v-12.35h64.44V1023.74z"/>
</svg>
